<svg id="Layer_2" data-name="Layer 2" xmlns="http://www.w3.org/2000/svg" xmlns:xlink="http://www.w3.org/1999/xlink" viewBox="0 0 1062.55 710.69"><defs><style>.cls-1{fill:none;}.cls-2{fill:#fff;}.cls-3{fill:red;}.cls-4{fill:url(#New_Pattern_Swatch_2);}</style><pattern id="New_Pattern_Swatch_2" data-name="New Pattern Swatch 2" x="-67.48" y="-40.65" width="74.85" height="61.46" patternUnits="userSpaceOnUse" viewBox="0 0 74.85 61.46"><rect class="cls-1" width="74.85" height="61.46"/><path class="cls-2" d="M17.6,68.34a6.86,6.86,0,0,0,1.92.74,7.72,7.72,0,0,0,2.53-.1,4.67,4.67,0,0,0,3.14-2.53A6.62,6.62,0,0,0,25.51,65a1.71,1.71,0,0,0,0-1.14c-.16-.36-.11-.8-.32-1.21A10.44,10.44,0,0,0,22.8,60c-.42-.41-.86-.79-1.27-1.21-.09-.08-.1-.23-.12-.28l.14-.53.4-.48a3.55,3.55,0,0,1,3,1.1V54.84a9.22,9.22,0,0,0-3.36-1c-.29,0-.61.15-.91.15a4,4,0,0,0-1.13.32,3.27,3.27,0,0,0-1.61,1.29,2.72,2.72,0,0,0-.7,1.68c0,.1-.16.21-.34.42V54.26H12.72V64.77l-.75.54-.63-.2a3.56,3.56,0,0,1-.42-2c0-2.7,0-5.39,0-8.08v-.79H6.79V64A9.11,9.11,0,0,0,7,65.66,4.28,4.28,0,0,0,11,69.12c.44,0,.9,0,1.34,0a4.18,4.18,0,0,0,2.59-.7,4,4,0,0,0,1.55-1.87c.23-.5.31-1,.49-1.54v3C17.26,68.14,17.42,68.26,17.6,68.34Zm2.29-2.84A6.27,6.27,0,0,1,17,64.19c0-1,0-2.12,0-3.19,0-.69-.08-1.38-.12-2.09l.28,0a2.76,2.76,0,0,0,.37,1.37,7.44,7.44,0,0,0,1.6,1.89,13.17,13.17,0,0,1,1.8,1.7,1,1,0,0,1-.18,1.46Z"/><path class="cls-2" d="M39.89,68.94a10.5,10.5,0,0,0,2.62-.16,9.57,9.57,0,0,0,2-.73,5.21,5.21,0,0,0,2-2.35,9.93,9.93,0,0,0,.8-3.43,12.2,12.2,0,0,0,0-1.71A7.65,7.65,0,0,0,47,58.38a6,6,0,0,0-2-3.05,5.33,5.33,0,0,0-3.13-1.11c-1.44,0-2.88,0-4.31,0h-.36l-.27.27V68.29a.82.82,0,0,0,0,.27,3.21,3.21,0,0,0,.23.38C38.15,68.94,39,69,39.89,68.94ZM42.1,58.18a2.86,2.86,0,0,1,.81,1.49,14.74,14.74,0,0,1,.16,3.25,5.21,5.21,0,0,1-.53,1.93c-.16.31-.48.38-.75.49a.55.55,0,0,1-.69-.27,6.92,6.92,0,0,1,0-1.51c.37-1.76,0-3.54.2-5.38Z"/><path class="cls-2" d="M58.89,60.11a7.57,7.57,0,0,0-.22-1.36,7.38,7.38,0,0,0-1.34-3.11,4.64,4.64,0,0,0-2.93-1.75,3.84,3.84,0,0,0-2.34.14,4.05,4.05,0,0,0-3,1.86,7.43,7.43,0,0,0-1.48,4.21,13.82,13.82,0,0,0,.32,4.52,6.88,6.88,0,0,0,1.6,3.1,4.29,4.29,0,0,0,3.26,1.4,9.73,9.73,0,0,1,1.08,0,3.7,3.7,0,0,0,2.44-.8,4.3,4.3,0,0,0,1.43-1.53,9.76,9.76,0,0,0,1.16-4.45c0-.27,0-.54,0-.81C58.88,61.06,58.88,60.59,58.89,60.11Zm-5.3-2.66a2.34,2.34,0,0,1,.79,1.91,20.33,20.33,0,0,1,.2,2.34,8.29,8.29,0,0,1-.79,3.59l-.46.25a2,2,0,0,0-.36-.18,1,1,0,0,0-.3,0A4.11,4.11,0,0,1,51.88,63V59.7a4.15,4.15,0,0,1,.79-2.25Z"/><path class="cls-2" d="M34.06,58H31.79V68.65l-.25.24c-1.26,0-2.47,0-3.69,0-.07,0-.13-.11-.22-.21V58H25.41l-.25-.26c0-1.13,0-2.23,0-3.32,0-.07.12-.13.2-.21h8.69Z"/><path class="cls-2" d="M74.85,54.25V58h-2.3v11h-3.9c-.06-.06-.13-.12-.22-.22V58h-2l-.3-.29V54.25Z"/><path class="cls-2" d="M2.48,54.23h4a2.16,2.16,0,0,1,.16.55c0,.68,0,1.37,0,2.06q0,4,0,8.07a6.43,6.43,0,0,1-.32,1.58A3.36,3.36,0,0,1,3.78,69,4.62,4.62,0,0,1,0,68.42V64.93a2.71,2.71,0,0,0,1.85.59A1.72,1.72,0,0,0,2.49,64C2.47,60.77,2.48,57.54,2.48,54.23Z"/><path class="cls-2" d="M61.85,68.94c-.09-.08-.17-.17-.27-.27,0-2.34,0-4.71,0-7.07s-.3-4.73-.13-7.16l.22-.2h4V68.7l-.25.24Z"/><path class="cls-2" d="M55,53a7.08,7.08,0,0,0,1.93.75,8,8,0,0,0,2.53-.11,4.66,4.66,0,0,0,3.14-2.53,6.37,6.37,0,0,0,.31-1.49,1.68,1.68,0,0,0,0-1.13c-.16-.37-.11-.8-.32-1.22a10.43,10.43,0,0,0-2.4-2.64L59,43.39a.85.85,0,0,1-.12-.28l.14-.54.41-.48a3.64,3.64,0,0,1,3,1.1V39.47a9.45,9.45,0,0,0-3.37-1c-.28-.06-.6.14-.91.15a4,4,0,0,0-1.13.31,3.26,3.26,0,0,0-1.6,1.29,2.69,2.69,0,0,0-.71,1.68c0,.11-.16.22-.33.43V38.89H50.15V49.4l-.76.55-.62-.21a3.55,3.55,0,0,1-.43-2c0-2.69,0-5.39,0-8.08v-.78H44.22v9.78a8.29,8.29,0,0,0,.16,1.64,4.26,4.26,0,0,0,4.07,3.46c.45,0,.9,0,1.35,0a4.2,4.2,0,0,0,2.59-.7,4.06,4.06,0,0,0,1.55-1.86c.22-.51.31-1,.49-1.54v3A4.45,4.45,0,0,0,55,53Zm2.29-2.84a6.19,6.19,0,0,1-2.85-1.31c0-1,0-2.12,0-3.19,0-.69-.07-1.37-.11-2.08l.28,0A2.69,2.69,0,0,0,55,44.87a7.48,7.48,0,0,0,1.61,1.89,15.17,15.17,0,0,1,1.79,1.7,1,1,0,0,1-.18,1.46Z"/><path class="cls-2" d="M77.31,53.57a10.57,10.57,0,0,0,2.63-.15,9.32,9.32,0,0,0,2-.74,5.15,5.15,0,0,0,2-2.34,10,10,0,0,0,.79-3.44,12.06,12.06,0,0,0,0-1.7A7.34,7.34,0,0,0,84.44,43a5.93,5.93,0,0,0-2-3,5.25,5.25,0,0,0-3.14-1.11c-1.43,0-2.87,0-4.31,0h-.36l-.27.27V52.93a.74.74,0,0,0,0,.26,2.33,2.33,0,0,0,.23.39C75.58,53.58,76.45,53.6,77.31,53.57Zm2.21-10.76a2.92,2.92,0,0,1,.82,1.49,15.41,15.41,0,0,1,.16,3.25A5.35,5.35,0,0,1,80,49.48a1.16,1.16,0,0,1-.75.49.55.55,0,0,1-.69-.27,7.51,7.51,0,0,1,0-1.5c.37-1.77,0-3.54.21-5.39Z"/><path class="cls-2" d="M71.49,42.63H69.21V53.28l-.24.25h-3.7c-.06,0-.12-.12-.22-.21V42.65H62.84l-.25-.25c0-1.13,0-2.23,0-3.33,0-.06.11-.13.19-.21h8.7Z"/><path class="cls-2" d="M39.91,38.86h4a2.25,2.25,0,0,1,.15.55c0,.69,0,1.38,0,2.06,0,2.7,0,5.39,0,8.08a6.43,6.43,0,0,1-.31,1.57,3.34,3.34,0,0,1-2.52,2.46,4.58,4.58,0,0,1-3.78-.53V49.56a2.63,2.63,0,0,0,1.85.59,1.69,1.69,0,0,0,.64-1.52C39.9,45.4,39.91,42.17,39.91,38.86Z"/><path class="cls-2" d="M2.46,53.57a10.57,10.57,0,0,0,2.63-.15,9.32,9.32,0,0,0,2-.74,5.07,5.07,0,0,0,2-2.34A10,10,0,0,0,10,46.9a13.78,13.78,0,0,0,0-1.7A7.67,7.67,0,0,0,9.59,43a5.93,5.93,0,0,0-2-3,5.25,5.25,0,0,0-3.14-1.11c-1.43,0-2.87,0-4.31,0H-.19l-.27.27V52.93a.74.74,0,0,0,0,.26,3.15,3.15,0,0,0,.22.39C.73,53.58,1.59,53.6,2.46,53.57ZM4.67,42.81a3,3,0,0,1,.82,1.49,15.41,15.41,0,0,1,.16,3.25,5.56,5.56,0,0,1-.53,1.93,1.16,1.16,0,0,1-.75.49.57.57,0,0,1-.7-.27,7.51,7.51,0,0,1,0-1.5c.37-1.77,0-3.54.2-5.39Z"/><path class="cls-2" d="M21.46,44.74a6.14,6.14,0,0,0-.22-1.35,7.31,7.31,0,0,0-1.33-3.11A4.64,4.64,0,0,0,17,38.53a3.84,3.84,0,0,0-2.34.14,4.05,4.05,0,0,0-3,1.85,7.39,7.39,0,0,0-1.48,4.21,14.07,14.07,0,0,0,.31,4.52,7.08,7.08,0,0,0,1.6,3.1,4.33,4.33,0,0,0,3.27,1.41,9.55,9.55,0,0,1,1.07,0A3.72,3.72,0,0,0,18.87,53a4.4,4.4,0,0,0,1.42-1.54A9.62,9.62,0,0,0,21.46,47c0-.26,0-.53,0-.8C21.46,45.7,21.45,45.22,21.46,44.74Zm-5.3-2.66A2.38,2.38,0,0,1,17,44a20.49,20.49,0,0,1,.19,2.35,8.29,8.29,0,0,1-.79,3.59l-.46.24a2,2,0,0,0-.36-.18,1,1,0,0,0-.3,0,4.18,4.18,0,0,1-.79-2.34V44.34a4.23,4.23,0,0,1,.79-2.26Z"/><path class="cls-2" d="M37.43,38.88V42.6H35.12v11H31.23L31,53.33V42.66H29l-.31-.29V38.88Z"/><path class="cls-2" d="M24.42,53.58l-.27-.27c0-2.35,0-4.71,0-7.07s-.31-4.74-.14-7.16l.23-.21h4V53.33l-.25.25Z"/><path class="cls-2" d="M17.6,37.61a6.86,6.86,0,0,0,1.92.74,7.72,7.72,0,0,0,2.53-.1,4.69,4.69,0,0,0,3.14-2.53,6.59,6.59,0,0,0,.32-1.5,1.69,1.69,0,0,0,0-1.13c-.16-.36-.11-.8-.32-1.21a10.44,10.44,0,0,0-2.39-2.65c-.42-.41-.86-.79-1.27-1.21-.09-.08-.1-.23-.12-.28l.14-.53.4-.48a3.55,3.55,0,0,1,3,1.1V24.1a9.4,9.4,0,0,0-3.36-1c-.29-.05-.61.15-.91.15a4.3,4.3,0,0,0-1.13.31,3.29,3.29,0,0,0-1.61,1.3,2.72,2.72,0,0,0-.7,1.68c0,.1-.16.21-.34.42V23.53H12.72V34l-.75.54-.63-.2a3.56,3.56,0,0,1-.42-2c0-2.7,0-5.39,0-8.08V23.5H6.79v9.79A9,9,0,0,0,7,34.92,4.28,4.28,0,0,0,11,38.39c.44,0,.9,0,1.34,0A4.25,4.25,0,0,0,15,37.7a4,4,0,0,0,1.55-1.87c.23-.5.31-1,.49-1.54v3C17.26,37.41,17.42,37.53,17.6,37.61Zm2.29-2.84A6.27,6.27,0,0,1,17,33.46c0-1.06,0-2.13,0-3.2,0-.68-.08-1.37-.12-2.08l.28,0a2.76,2.76,0,0,0,.37,1.37,7.62,7.62,0,0,0,1.6,1.89A13.17,13.17,0,0,1,21,33.1a1,1,0,0,1-.18,1.46Z"/><path class="cls-2" d="M39.89,38.21a10.5,10.5,0,0,0,2.62-.16,9.57,9.57,0,0,0,2-.73,5.26,5.26,0,0,0,2-2.35,9.93,9.93,0,0,0,.8-3.44,12.06,12.06,0,0,0,0-1.7A7.65,7.65,0,0,0,47,27.65a5.94,5.94,0,0,0-2-3,5.33,5.33,0,0,0-3.13-1.11c-1.44,0-2.88,0-4.31,0h-.36l-.27.27V37.56a.82.82,0,0,0,0,.27,3.21,3.21,0,0,0,.23.38C38.15,38.21,39,38.23,39.89,38.21ZM42.1,27.45a2.86,2.86,0,0,1,.81,1.49,14.68,14.68,0,0,1,.16,3.24,5.11,5.11,0,0,1-.53,1.93c-.16.32-.48.39-.75.5a.55.55,0,0,1-.69-.27,6.92,6.92,0,0,1,0-1.51c.37-1.76,0-3.54.2-5.38Z"/><path class="cls-2" d="M58.89,29.38A7.57,7.57,0,0,0,58.67,28a7.38,7.38,0,0,0-1.34-3.11,4.64,4.64,0,0,0-2.93-1.75,3.84,3.84,0,0,0-2.34.14,4.05,4.05,0,0,0-3,1.86,7.43,7.43,0,0,0-1.48,4.21,13.74,13.74,0,0,0,.32,4.51A6.86,6.86,0,0,0,49.51,37a4.32,4.32,0,0,0,3.26,1.4,9.73,9.73,0,0,1,1.08,0,3.7,3.7,0,0,0,2.44-.8,4.3,4.3,0,0,0,1.43-1.53,9.76,9.76,0,0,0,1.16-4.45c0-.27,0-.54,0-.81C58.88,30.33,58.88,29.85,58.89,29.38Zm-5.3-2.66a2.34,2.34,0,0,1,.79,1.91,20.33,20.33,0,0,1,.2,2.34,8.29,8.29,0,0,1-.79,3.59l-.46.25a1.52,1.52,0,0,0-.36-.18,1,1,0,0,0-.3,0,4.11,4.11,0,0,1-.79-2.34V29a4.12,4.12,0,0,1,.79-2.25Z"/><path class="cls-2" d="M34.06,27.26H31.79V37.92l-.25.24H27.85c-.07,0-.13-.11-.22-.21V27.28H25.41L25.16,27c0-1.13,0-2.23,0-3.33,0-.06.12-.12.2-.2h8.69Z"/><path class="cls-2" d="M74.85,23.51v3.72h-2.3v11h-3.9L68.43,38V27.3h-2l-.3-.29v-3.5Z"/><path class="cls-2" d="M2.48,23.5h4a2.16,2.16,0,0,1,.16.55c0,.68,0,1.37,0,2.06q0,4,0,8.07a6.62,6.62,0,0,1-.32,1.58,3.36,3.36,0,0,1-2.52,2.46A4.66,4.66,0,0,1,0,37.69V34.2a2.71,2.71,0,0,0,1.85.59,1.72,1.72,0,0,0,.64-1.52C2.47,30,2.48,26.81,2.48,23.5Z"/><path class="cls-2" d="M61.85,38.21c-.09-.08-.17-.17-.27-.27,0-2.34,0-4.71,0-7.07s-.3-4.74-.13-7.16l.22-.21h4V38l-.25.24Z"/><path class="cls-2" d="M55,22.24A7.08,7.08,0,0,0,57,23a8,8,0,0,0,2.53-.11,4.66,4.66,0,0,0,3.14-2.53,6.37,6.37,0,0,0,.31-1.49,1.68,1.68,0,0,0,0-1.13c-.16-.37-.11-.8-.32-1.22a10.43,10.43,0,0,0-2.4-2.64L59,12.66a.81.81,0,0,1-.12-.29l.14-.53.41-.48a3.64,3.64,0,0,1,3,1.1V8.74a9.45,9.45,0,0,0-3.37-1c-.28-.06-.6.14-.91.15a4,4,0,0,0-1.13.31,3.26,3.26,0,0,0-1.6,1.29,2.69,2.69,0,0,0-.71,1.68c0,.11-.16.22-.33.43V8.16H50.15V18.67l-.76.55L48.77,19a3.55,3.55,0,0,1-.43-2c0-2.69,0-5.39,0-8.08V8.14H44.22v9.78a8.29,8.29,0,0,0,.16,1.64A4.26,4.26,0,0,0,48.45,23c.45,0,.9,0,1.35,0a4.2,4.2,0,0,0,2.59-.7,4.06,4.06,0,0,0,1.55-1.86c.22-.51.31-1,.49-1.54v3A4.45,4.45,0,0,0,55,22.24Zm2.29-2.84a6.19,6.19,0,0,1-2.85-1.31c0-1.05,0-2.12,0-3.19,0-.69-.07-1.37-.11-2.08l.28-.05A2.7,2.7,0,0,0,55,14.14,7.48,7.48,0,0,0,56.59,16a15.17,15.17,0,0,1,1.79,1.7,1,1,0,0,1-.18,1.46Z"/><path class="cls-2" d="M77.31,22.84a10.57,10.57,0,0,0,2.63-.15A9.88,9.88,0,0,0,82,22a5.15,5.15,0,0,0,2-2.34,10,10,0,0,0,.79-3.44,12.19,12.19,0,0,0,0-1.71,7.33,7.33,0,0,0-.37-2.18,5.93,5.93,0,0,0-2-3,5.25,5.25,0,0,0-3.14-1.11c-1.43-.05-2.87,0-4.31,0h-.36l-.27.27V22.2a.76.76,0,0,0,0,.26,2.33,2.33,0,0,0,.23.39C75.58,22.85,76.45,22.87,77.31,22.84Zm2.21-10.76a2.88,2.88,0,0,1,.82,1.49,15.41,15.41,0,0,1,.16,3.25A5.35,5.35,0,0,1,80,18.75a1.16,1.16,0,0,1-.75.49.55.55,0,0,1-.69-.27,7.51,7.51,0,0,1,0-1.5c.37-1.77,0-3.55.21-5.39Z"/><path class="cls-2" d="M71.49,11.89H69.21V22.55L69,22.8h-3.7c-.06,0-.12-.12-.22-.21V11.92H62.84l-.25-.25c0-1.13,0-2.23,0-3.33,0-.06.11-.13.19-.21h8.7Z"/><path class="cls-2" d="M39.91,8.13h4a2.14,2.14,0,0,1,.15.55c0,.69,0,1.38,0,2.06,0,2.69,0,5.39,0,8.08a6.43,6.43,0,0,1-.31,1.57,3.34,3.34,0,0,1-2.52,2.46,4.58,4.58,0,0,1-3.78-.53V18.83a2.63,2.63,0,0,0,1.85.59,1.69,1.69,0,0,0,.64-1.52C39.9,14.67,39.91,11.44,39.91,8.13Z"/><path class="cls-2" d="M2.46,22.84a10.57,10.57,0,0,0,2.63-.15,9.88,9.88,0,0,0,2-.74,5.07,5.07,0,0,0,2-2.34,10,10,0,0,0,.8-3.44,13.93,13.93,0,0,0,0-1.71,7.67,7.67,0,0,0-.37-2.18,5.93,5.93,0,0,0-2-3A5.25,5.25,0,0,0,4.48,8.13c-1.43-.05-2.87,0-4.31,0H-.19l-.27.27V22.2a.76.76,0,0,0,0,.26,3.15,3.15,0,0,0,.22.39C.73,22.85,1.59,22.87,2.46,22.84ZM4.67,12.08a3,3,0,0,1,.82,1.49,15.41,15.41,0,0,1,.16,3.25,5.56,5.56,0,0,1-.53,1.93,1.16,1.16,0,0,1-.75.49.57.57,0,0,1-.7-.27,7.51,7.51,0,0,1,0-1.5c.37-1.77,0-3.55.2-5.39Z"/><path class="cls-2" d="M21.46,14a6.14,6.14,0,0,0-.22-1.35,7.25,7.25,0,0,0-1.33-3.11A4.64,4.64,0,0,0,17,7.8a3.84,3.84,0,0,0-2.34.14,4,4,0,0,0-3,1.85A7.39,7.39,0,0,0,10.17,14a14.07,14.07,0,0,0,.31,4.52,7.08,7.08,0,0,0,1.6,3.1A4.33,4.33,0,0,0,15.35,23a9.55,9.55,0,0,1,1.07,0,3.72,3.72,0,0,0,2.45-.79,4.4,4.4,0,0,0,1.42-1.54,9.65,9.65,0,0,0,1.17-4.45c0-.27,0-.54,0-.8C21.46,15,21.45,14.49,21.46,14Zm-5.3-2.66a2.38,2.38,0,0,1,.8,1.91,20.49,20.49,0,0,1,.19,2.35,8.22,8.22,0,0,1-.79,3.58l-.46.25a2,2,0,0,0-.36-.18,1,1,0,0,0-.3,0,4.13,4.13,0,0,1-.79-2.33V13.6a4.23,4.23,0,0,1,.79-2.25Z"/><path class="cls-2" d="M37.43,8.15v3.72H35.12v11H31.23L31,22.6V11.93H29l-.31-.29V8.15Z"/><path class="cls-2" d="M24.42,22.85l-.27-.27c0-2.35,0-4.71,0-7.08s-.31-4.73-.14-7.15l.23-.21h4V22.6l-.25.25Z"/><path class="cls-2" d="M17.6,6.88a6.86,6.86,0,0,0,1.92.74,7.46,7.46,0,0,0,2.53-.11A4.65,4.65,0,0,0,25.19,5a6.59,6.59,0,0,0,.32-1.5,1.69,1.69,0,0,0,0-1.13c-.16-.37-.11-.8-.32-1.21A10.44,10.44,0,0,0,22.8-1.5c-.42-.41-.86-.8-1.27-1.21-.09-.08-.1-.23-.12-.28l.14-.53L22-4a3.55,3.55,0,0,1,3,1.1V-6.63a9.4,9.4,0,0,0-3.36-1c-.29,0-.61.14-.91.15a4.3,4.3,0,0,0-1.13.31,3.29,3.29,0,0,0-1.61,1.3,2.72,2.72,0,0,0-.7,1.68c0,.1-.16.21-.34.42V-7.2H12.72V3.3L12,3.85l-.63-.2a3.59,3.59,0,0,1-.42-2c0-2.69,0-5.38,0-8.08v-.78H6.79V2.56A9,9,0,0,0,7,4.19,4.28,4.28,0,0,0,11,7.66c.44,0,.9,0,1.34,0A4.19,4.19,0,0,0,15,7,4,4,0,0,0,16.51,5.1c.23-.5.31-1,.49-1.54v3C17.26,6.68,17.42,6.8,17.6,6.88ZM19.89,4A6.29,6.29,0,0,1,17,2.72C17,1.67,17,.6,17-.47c0-.68-.08-1.37-.12-2.08l.28,0a2.76,2.76,0,0,0,.37,1.37A7.4,7.4,0,0,0,19.16.66,13.89,13.89,0,0,1,21,2.37a1,1,0,0,1-.18,1.46Z"/><path class="cls-2" d="M39.89,7.48a10.5,10.5,0,0,0,2.62-.16,9.08,9.08,0,0,0,2-.74,5.18,5.18,0,0,0,2-2.34A9.93,9.93,0,0,0,47.38.8a12.06,12.06,0,0,0,0-1.7A7.65,7.65,0,0,0,47-3.08a5.94,5.94,0,0,0-2-3,5.33,5.33,0,0,0-3.13-1.11c-1.44,0-2.88,0-4.31,0h-.36L37-7V6.83a.82.82,0,0,0,0,.27,3.21,3.21,0,0,0,.23.38C38.15,7.48,39,7.5,39.89,7.48ZM42.1-3.28a2.86,2.86,0,0,1,.81,1.49,14.68,14.68,0,0,1,.16,3.24,5.11,5.11,0,0,1-.53,1.93c-.16.32-.48.39-.75.49a.54.54,0,0,1-.69-.26,6.92,6.92,0,0,1,0-1.51c.37-1.76,0-3.54.2-5.38Z"/><path class="cls-2" d="M58.89-1.35a7.57,7.57,0,0,0-.22-1.36,7.38,7.38,0,0,0-1.34-3.11A4.64,4.64,0,0,0,54.4-7.57a3.84,3.84,0,0,0-2.34.14,4.05,4.05,0,0,0-3,1.86,7.41,7.41,0,0,0-1.48,4.21,13.74,13.74,0,0,0,.32,4.51,6.91,6.91,0,0,0,1.6,3.11,4.32,4.32,0,0,0,3.26,1.4,9.73,9.73,0,0,1,1.08,0,3.7,3.7,0,0,0,2.44-.8,4.39,4.39,0,0,0,1.43-1.53A9.76,9.76,0,0,0,58.88.89c0-.27,0-.54,0-.81C58.88-.4,58.88-.88,58.89-1.35ZM53.59-4a2.32,2.32,0,0,1,.79,1.91,20.33,20.33,0,0,1,.2,2.34,8.29,8.29,0,0,1-.79,3.59l-.46.25A1.52,1.52,0,0,0,53,3.9a.77.77,0,0,0-.3,0,4.11,4.11,0,0,1-.79-2.34V-1.76A4.12,4.12,0,0,1,52.67-4Z"/><path class="cls-2" d="M34.06-3.47H31.79V7.19l-.25.24H27.85c-.07,0-.13-.12-.22-.21V-3.45H25.41l-.25-.25c0-1.13,0-2.23,0-3.33,0-.06.12-.12.2-.2h8.69Z"/><path class="cls-2" d="M74.85-7.22V-3.5h-2.3v11h-3.9l-.22-.22V-3.43h-2l-.3-.29v-3.5Z"/><path class="cls-2" d="M2.48-7.23h4a2.21,2.21,0,0,1,.16.54c0,.69,0,1.38,0,2.07q0,4,0,8.07A6.62,6.62,0,0,1,6.3,5,3.36,3.36,0,0,1,3.78,7.49,4.62,4.62,0,0,1,0,7V3.47a2.71,2.71,0,0,0,1.85.59,1.72,1.72,0,0,0,.64-1.52C2.47-.69,2.48-3.92,2.48-7.23Z"/><path class="cls-2" d="M61.85,7.48c-.09-.08-.17-.17-.27-.27,0-2.35,0-4.71,0-7.07S61.27-4.6,61.44-7l.22-.21h4V7.24l-.25.24Z"/></pattern></defs><title>nikeboxdesign</title><path class="cls-3" d="M161.87,732.51l4.35,18.84h229l26.18-18.69,122.59.16.15-89.43s-.87-15.32-26.39-15.22v-35.3l26.53-18.94-.14-47.41-119.19-.2-3.77-2.38,3.62-2.38,93.09-5.7-.14-60.76-96.28-68.93h123.1l-.72-89.43s-1.45-14.08-25.81-14.6l-.15-35.61,26.39-18.73L543.94,180l-119.19-.21-3.48-2.17,4.06-2.49,92.37-5.9.43-60-97-68.53-259.69.21-2,1.66L81.69,48,67.48,53.07,67.91,98l57.28,1.24s11.89.41,13.19,9.94c0,0,.29,8.79-13.92,9.83l-57,1.35.29,44.82,13.92,5.07,69.6,5,8.55.31,1.89,2.17-2.32,1.76-91.5,1.76V382.55l91.64,1.86,2.47,2-1.89,1.55-78.59,5.69-13.92,5.17.29,112.52L82,516.69l78.15,5.8,1.6,1.65-1.45,1.66L67.91,528,67.77,729.2l91.06,1.65,3,1.66" transform="translate(-67.48 -40.65)"/><line class="cls-3" x1="94.39" y1="691.86" x2="353.36" y2="691.86"/><line class="cls-3" x1="353.54" y1="691.86" x2="353.54" y2="0.21"/><line class="cls-3" x1="93.96" y1="0.21" x2="93.96" y2="691.86"/><line class="cls-3" x1="353.65" y1="483.28" x2="93.52" y2="483.28"/><line class="cls-3" x1="353.94" y1="345.52" x2="95.26" y2="345.52"/><line class="cls-3" x1="353.8" y1="136.94" x2="94.1" y2="136.94"/><line class="cls-3" x1="450.22" y1="552.22" x2="357.35" y2="485.92"/><line class="cls-3" x1="450.37" y1="205.88" x2="356.99" y2="139.22"/><path class="cls-2" d="M200.05,643.52c-1.51,7.48-3,14.3-4.24,21.17C193,680.11,209.72,691.87,222,689.06c14.75-3.36,29.58-6.43,44.3-9.93,20.68-4.9,41.3-10.07,61.94-15.15a6.48,6.48,0,0,0,3.32-1.85H304.05c-1-7.53-1.94-14.74-2.89-22l-1-.09c-2.33,5.81-4.88,11.54-6.93,17.44-1.28,3.67-3.27,5.08-7.16,4.61-3.16-.38-6.39-.07-10.28-.07,6.14-15,12-29.3,17.82-43.57,2-5,4.4-9.88,6.14-15,1.2-3.5,3.07-4.85,6.74-4.46,3,.31,6.09.06,9.79.06l-4.78,14.35,1,.65c3-3.15,6.3-6.06,8.91-9.5,3.37-4.46,7.37-6.46,12.95-5.65,2.4.36,4.89.06,8.78.06-7.77,8.61-14.32,16.44-21.5,23.65-4.94,5-7.35,9.9-5.72,17.14,1.44,6.42,1.49,13.16,3.25,20,2.16-5.2,4.38-10.38,6.48-15.61,5.58-13.85,11.21-27.68,16.58-41.61,1.18-3.06,2.71-4,5.93-3.91,8.61.25,17.22.08,26.42.08-.94,2.69-1.74,4.49-2.18,6.37-.94,4-3.24,5.15-7.35,5C354,609.8,352.2,611.59,349.81,624h14c-.94,2.75-1.83,5-2.49,7.41-.79,2.84-2.36,3.84-5.45,3.88-13.14.15-13.14.27-17,15h17.49l-1.14,6.45,65.14-18.86.41,1.16c-10.16,4.51-20.34,9-30.48,13.55-45,20.24-89.83,40.94-135.12,60.54-17.28,7.47-35.53,12.79-53.57,18.37-5.14,1.59-11.14,1.29-16.63.73-16.09-1.64-25.65-17.42-21.22-34.76a61.47,61.47,0,0,1,4.87-12.54C176.66,669.35,187.86,656.24,200.05,643.52Z" transform="translate(-67.48 -40.65)"/><path class="cls-2" d="M244.79,599.12v22l.94.27c2.52-5.64,5.42-11.16,7.46-17,1.62-4.64,4.21-6.15,8.83-5.26,2.63.51,5.35.62,8.61,1-.83,2.37-1.47,4.5-2.31,6.55-6.85,16.84-13.86,33.61-20.53,50.52-1.5,3.8-3.41,5.36-7.52,4.86-3.35-.41-6.79-.08-10.66-.08V637.43l-1.27-.4c-.92,2.08-1.88,4.15-2.75,6.25s-1.73,4.36-2.59,6.53c-5.28,13.38-5.28,13.38-20.7,11.81l9.57-22.93c4.77-11.46,9.68-22.87,14.22-34.43,1.52-3.89,3.36-5.88,7.84-5.24C237.25,599.5,240.7,599.12,244.79,599.12Z" transform="translate(-67.48 -40.65)"/><path class="cls-2" d="M293.82,598.79c-8.4,21-16.35,41-24.48,60.94-.44,1.07-2.35,2.09-3.64,2.18-3.94.28-7.9.1-12.68.1,1.06-2.94,1.86-5.4,2.83-7.79,6.69-16.48,13.63-32.86,20-49.45,1.87-4.87,4.34-6.83,9.42-6C287.73,599.1,290.29,598.79,293.82,598.79Z" transform="translate(-67.48 -40.65)"/><path class="cls-2" d="M317.58,464.31c.38-1,.83-2,1.17-3.09a10.67,10.67,0,0,0,.55-4.38,6.14,6.14,0,0,0-3.68-5.23,8.36,8.36,0,0,0-3.31-.77,12.11,12.11,0,0,0-3.55.41l-7.35,2-6,1.6c-2.64.72-5.27,1.45-7.91,2.16l-10,2.72-7.21,1.95-8.06,2.19-4.9,1.33c-.42.11-.84.24-1.26.33a2,2,0,0,1-.48,0c.11-.13.19-.31.33-.37.81-.37,1.64-.72,2.45-1.07l6.43-2.78,8.26-3.58,8.78-3.81,8.6-3.73,5.57-2.4,7.77-3.32c1.44-.61,2.89-1.21,4.33-1.83a38.29,38.29,0,0,1,6-2.09,23.7,23.7,0,0,1,3-.47,9.78,9.78,0,0,1,4.12.47,9.67,9.67,0,0,1,3.64,2.21,5.77,5.77,0,0,1,1.74,4,10.81,10.81,0,0,1-.53,3.79,25.83,25.83,0,0,1-2.8,6.06,48.75,48.75,0,0,1-3.16,4.65c-.81,1.06-1.66,2.08-2.49,3.12Z" transform="translate(-67.48 -40.65)"/><path class="cls-2" d="M265.57,87.14c-.38,1-.83,2-1.17,3.09a10.51,10.51,0,0,0-.55,4.38,6.11,6.11,0,0,0,3.68,5.23,8.36,8.36,0,0,0,3.31.77,12,12,0,0,0,3.54-.41l7.36-2c2-.54,4-1.06,6-1.61l7.9-2.16,10.05-2.71,7.21-2,8.05-2.19,4.91-1.33c.42-.12.83-.24,1.25-.33a2,2,0,0,1,.49,0c-.11.13-.2.31-.34.37-.81.37-1.63.72-2.45,1.07l-6.43,2.78-8.26,3.58-8.78,3.81-8.59,3.73-5.57,2.4L279.39,107c-1.44.61-2.88,1.21-4.32,1.83a38.41,38.41,0,0,1-6,2.09,23.27,23.27,0,0,1-3,.47A9.8,9.8,0,0,1,262,111a9.63,9.63,0,0,1-3.63-2.21,5.79,5.79,0,0,1-1.74-4,10.8,10.8,0,0,1,.52-3.79,26.66,26.66,0,0,1,2.8-6.06,50.78,50.78,0,0,1,3.17-4.65c.81-1.06,1.66-2.08,2.49-3.12C265.58,87.12,265.61,87.11,265.57,87.14Z" transform="translate(-67.48 -40.65)"/><ellipse cx="1062.38" cy="148.05" rx="0.24" ry="0.71"/><path d="M768.26,193.11l.69-.82.32.32-.82.69Z" transform="translate(-67.48 -40.65)"/><path class="cls-2" d="M647.65,370.22v-3c-.18.51-.27,1-.5,1.54a4,4,0,0,1-1.55,1.86,4.18,4.18,0,0,1-2.59.7c-.44,0-.89,0-1.34,0a4.28,4.28,0,0,1-4.08-3.46,9,9,0,0,1-.15-1.63q0-4.5,0-9v-.81h4.14v.78c0,2.7,0,5.39,0,8.08a3.59,3.59,0,0,0,.42,2l.63.2.75-.55V356.48h4.15V360c.17-.21.33-.32.33-.42a2.74,2.74,0,0,1,.7-1.69,3.33,3.33,0,0,1,1.61-1.29,4.3,4.3,0,0,1,1.13-.31c.31,0,.63-.21.91-.15a9.34,9.34,0,0,1,3.36,1v3.72a3.61,3.61,0,0,0-3-1.1l-.4.48-.14.54c0,.05,0,.2.12.28.41.41.85.8,1.27,1.21a10.8,10.8,0,0,1,2.4,2.64c.2.42.16.85.32,1.22a1.75,1.75,0,0,1,0,1.13,7.15,7.15,0,0,1-.31,1.5,4.7,4.7,0,0,1-3.14,2.52,8.09,8.09,0,0,1-2.54.11,7.14,7.14,0,0,1-1.92-.75A4.45,4.45,0,0,1,647.65,370.22Zm3.77-2.71a1,1,0,0,0,.18-1.45,14.47,14.47,0,0,0-1.79-1.71,7.48,7.48,0,0,1-1.61-1.89,2.7,2.7,0,0,1-.37-1.36l-.27,0c0,.71.1,1.39.11,2.08,0,1.07,0,2.14,0,3.19a6.27,6.27,0,0,0,2.86,1.31Z" transform="translate(-67.48 -40.65)"/><path class="cls-2" d="M667.84,371.17a3.15,3.15,0,0,1-.22-.39.74.74,0,0,1,0-.26V356.71l.27-.27h.36c1.44,0,2.87,0,4.31,0a5.31,5.31,0,0,1,3.14,1.11,5.93,5.93,0,0,1,2,3,7.67,7.67,0,0,1,.37,2.19,13.78,13.78,0,0,1,0,1.7,9.93,9.93,0,0,1-.8,3.44,5.12,5.12,0,0,1-2,2.34,8.83,8.83,0,0,1-2,.74,10.6,10.6,0,0,1-2.63.15C669.66,371.19,668.79,371.17,667.84,371.17ZM672,360.4c-.18,1.85.17,3.62-.2,5.39a7.6,7.6,0,0,0,0,1.51.55.55,0,0,0,.69.26,1.16,1.16,0,0,0,.76-.49,5.34,5.34,0,0,0,.52-1.93,15.43,15.43,0,0,0-.15-3.25,3,3,0,0,0-.82-1.49Z" transform="translate(-67.48 -40.65)"/><path class="cls-2" d="M689.53,363.77c0,.27,0,.54,0,.81a9.55,9.55,0,0,1-1.16,4.45,4.55,4.55,0,0,1-1.42,1.53,3.66,3.66,0,0,1-2.45.79c-.35,0-.72,0-1.08,0a4.3,4.3,0,0,1-3.26-1.41,7,7,0,0,1-1.6-3.1,14.3,14.3,0,0,1-.32-4.51,7.54,7.54,0,0,1,1.48-4.22,4.09,4.09,0,0,1,3-1.85,3.84,3.84,0,0,1,2.34-.14,4.64,4.64,0,0,1,2.94,1.75,7.43,7.43,0,0,1,1.33,3.11,6.79,6.79,0,0,1,.22,1.35C689.52,362.81,689.53,363.29,689.53,363.77Zm-6.22-4.09a4.12,4.12,0,0,0-.79,2.25v3.31a4.11,4.11,0,0,0,.79,2.34,1,1,0,0,1,.3,0,3,3,0,0,1,.36.18l.46-.24a8.29,8.29,0,0,0,.79-3.59,23,23,0,0,0-.19-2.35,2.36,2.36,0,0,0-.8-1.9Z" transform="translate(-67.48 -40.65)"/><path class="cls-2" d="M664.71,360.22h-2.28v10.65l-.25.25h-3.69c-.06,0-.13-.12-.22-.21V360.24h-2.21l-.26-.25c0-1.13,0-2.23,0-3.33,0-.06.12-.13.2-.2h8.7Z" transform="translate(-67.48 -40.65)"/><path class="cls-2" d="M705.49,356.47v3.72h-2.3v11h-3.9a2.26,2.26,0,0,0-.22-.22V360.25h-2l-.31-.28v-3.5Z" transform="translate(-67.48 -40.65)"/><path class="cls-2" d="M633.12,356.46h4a2.55,2.55,0,0,1,.15.54c0,.69,0,1.38,0,2.07,0,2.69,0,5.38,0,8.07a6,6,0,0,1-.32,1.57,3.33,3.33,0,0,1-2.52,2.46,4.59,4.59,0,0,1-3.78-.53v-3.48a2.65,2.65,0,0,0,1.85.58,1.67,1.67,0,0,0,.64-1.52C633.11,363,633.12,359.76,633.12,356.46Z" transform="translate(-67.48 -40.65)"/><path class="cls-2" d="M692.49,371.17l-.27-.27c0-2.35,0-4.71,0-7.07s-.3-4.74-.13-7.16l.23-.21h4v14.46l-.25.25Z" transform="translate(-67.48 -40.65)"/><rect class="cls-4" x="94.1" y="136.94" width="259.84" height="208.57"/></svg>