<?xml version="1.0" encoding="UTF-8"?>
<svg id="Layer_2" data-name="Layer 2" xmlns="http://www.w3.org/2000/svg" viewBox="0 0 194.89 194.89">
  <defs>
    <style>
      .cls-1 {
        fill: #fff;
        stroke-width: 0px;
      }
    </style>
  </defs>
  <g id="Instagram">
    <g>
      <path class="cls-1" d="M157.78,10c14.95,0,27.11,12.16,27.11,27.11v120.67c0,14.95-12.16,27.11-27.11,27.11H37.11c-14.95,0-27.11-12.16-27.11-27.11V37.11c0-14.95,12.16-27.11,27.11-27.11h120.67M157.78,0H37.11C16.62,0,0,16.62,0,37.11v120.67c0,20.5,16.62,37.11,37.11,37.11h120.67c20.5,0,37.11-16.62,37.11-37.11V37.11c0-20.5-16.62-37.11-37.11-37.11h0Z"/>
      <path class="cls-1" d="M97.44,54.82c23.5,0,42.62,19.12,42.62,42.62s-19.12,42.62-42.62,42.62-42.62-19.12-42.62-42.62,19.12-42.62,42.62-42.62M97.44,44.82c-29.06,0-52.62,23.56-52.62,52.62s23.56,52.62,52.62,52.62,52.62-23.56,52.62-52.62-23.56-52.62-52.62-52.62h0Z"/>
      <circle class="cls-1" cx="156.23" cy="37.96" r="11.37"/>
    </g>
  </g>
</svg>