<?xml version="1.0" encoding="UTF-8"?>
<svg id="Layer_2" data-name="Layer 2" xmlns="http://www.w3.org/2000/svg" viewBox="0 0 194.89 194.89">
  <defs>
    <style>
      .cls-1 {
        fill: #fff;
        stroke-width: 0px;
      }
    </style>
  </defs>
  <g id="LinkedIn">
    <path class="cls-1" d="M157.39,0H37.5C16.79,0,0,16.79,0,37.5v119.89c0,20.71,16.79,37.5,37.5,37.5h119.89c20.71,0,37.5-16.79,37.5-37.5V37.5c0-20.71-16.79-37.5-37.5-37.5ZM67.91,153.64h-24.29v-78.29h24.29v78.29ZM55.62,65.77c-7.67,0-12.81-5.42-12.63-12.17-.17-6.98,4.96-12.29,12.81-12.29s12.75,5.31,12.92,12.29c0,6.75-5.13,12.17-13.1,12.17ZM151.96,153.64h-24.35v-43.39c0-10.1-3.52-16.96-12.29-16.96-6.75,0-10.73,4.67-12.35,9.12-.63,1.44-.92,3.87-.92,6.06v45.17h-24.35v-53.31c0-9.75-.29-18.06-.63-24.98h21.12l1.1,10.73h.52c3.17-4.96,11.19-12.46,24.12-12.46,16.04,0,28.04,10.56,28.04,33.58v46.44Z"/>
  </g>
</svg>
